<svg xmlns="http://www.w3.org/2000/svg" width="24" height="24" viewBox="0 0 24 24" fill="none" stroke="#16a34a" stroke-width="2" stroke-linecap="round" stroke-linejoin="round">
  <path d="M7 20.59C4.41 20.11 2.59 18.29 2.11 15.71C1.6 13 3.08 10.41 5.34 9.2C5.41 6.79 6.82 4.72 8.97 3.73C11.91 2.4 15.23 3.13 17.33 5.74C18.85 5.06 20.96 5.56 21.88 7.17C22.88 8.94 22.29 11.14 20.66 12.26"></path>
  <path d="M8 16L12 12"></path>
  <path d="M8 12H10C12.21 12 14 13.79 14 16"></path>
  <path d="M16 16H14C11.79 16 10 14.21 10 12"></path>
  <path d="M19 16L15 12"></path>
</svg>